<svg width="80" height="80" viewBox="0 0 117 117" xmlns="http://www.w3.org/2000/svg" fill="none">
 <defs>
  <linearGradient y2="0.39235" x2="1.16842" y1="1" x1="0" id="paint0_linear_1_59">
   <stop style="--darkreader-inline-stopcolor: #a52020;" stop-color="#D83333"/>
   <stop style="--darkreader-inline-stopcolor: #9800a5;" stop-color="#F041FF" offset="1"/>
  </linearGradient>
 </defs>
 <g>
  <title>Layer 1</title>
  <path id="svg_1" fill="white" d="m43.5894,96.1365c-4.8339,-4.4187 -6.245,-13.703 -4.2311,-20.4293c3.492,4.2408 8.3305,5.5842 13.3422,6.3425c7.737,1.1702 15.3354,0.7325 22.5227,-2.8038c0.8222,-0.4049 1.582,-0.9432 2.4804,-1.4885c0.6744,1.9566 0.8499,3.9318 0.6144,5.9422c-0.5728,4.8961 -3.0094,8.6782 -6.8848,11.5452c-1.5497,1.1468 -3.1895,2.1719 -4.79,3.2531c-4.917,3.3234 -6.2473,7.2201 -4.3997,12.8881c0.0439,0.139 0.0832,0.277 0.1825,0.614c-2.5105,-1.124 -4.3443,-2.76 -5.7415,-4.911c-1.4758,-2.2697 -2.1779,-4.7809 -2.2149,-7.4981c-0.0185,-1.3223 -0.0185,-2.6564 -0.1963,-3.96c-0.4342,-3.1782 -1.9262,-4.6012 -4.7369,-4.6831c-2.8846,-0.0842 -5.1664,1.6991 -5.7715,4.5076c-0.0462,0.2153 -0.1132,0.4283 -0.1802,0.6787l0.0047,0.0024z"/>
  <path id="svg_2" fill="url(#paint0_linear_1_59)" d="m43.5894,96.1365c-4.8339,-4.4187 -6.245,-13.703 -4.2311,-20.4293c3.492,4.2408 8.3305,5.5842 13.3422,6.3425c7.737,1.1702 15.3354,0.7325 22.5227,-2.8038c0.8222,-0.4049 1.582,-0.9432 2.4804,-1.4885c0.6744,1.9566 0.8499,3.9318 0.6144,5.9422c-0.5728,4.8961 -3.0094,8.6782 -6.8848,11.5452c-1.5497,1.1468 -3.1895,2.1719 -4.79,3.2531c-4.917,3.3234 -6.2473,7.2201 -4.3997,12.8881c0.0439,0.139 0.0832,0.277 0.1825,0.614c-2.5105,-1.124 -4.3443,-2.76 -5.7415,-4.911c-1.4758,-2.2697 -2.1779,-4.7809 -2.2149,-7.4981c-0.0185,-1.3223 -0.0185,-2.6564 -0.1963,-3.96c-0.4342,-3.1782 -1.9262,-4.6012 -4.7369,-4.6831c-2.8846,-0.0842 -5.1664,1.6991 -5.7715,4.5076c-0.0462,0.2153 -0.1132,0.4283 -0.1802,0.6787l0.0047,0.0024z"/>
  <path style="--darkreader-inline-fill: #181a1b;" id="svg_3" fill="white" d="m16,74.5866c0,0 14.3139,-6.9729 28.6678,-6.9729l10.8223,-33.4933c0.4052,-1.6197 1.5882,-2.7205 2.9238,-2.7205c1.3356,0 2.5186,1.1008 2.9238,2.7205l10.8224,33.4933c17,0 28.6677,6.9729 28.6677,6.9729c0,0 -24.3133,-66.23427 -24.3608,-66.36716c-0.6978,-1.95824 -1.8759,-3.21944 -3.4641,-3.21944l-29.1755,0c-1.5882,0 -2.7187,1.2612 -3.464,3.21944c-0.0526,0.13039 -24.3634,66.36716 -24.3634,66.36716z"/>
 </g>
</svg>