<svg width="80" height="80" viewBox="0 0 344 344" xmlns="http://www.w3.org/2000/svg" version="1.1">
    <path d="m321.107,258.56051c2.401,-4.159 3.893,-8.845 3.893,-13.053l0,-146.069c0,-4.208 -1.49,-8.893 -3.892,-13.052l-149.108,86.087l149.107,86.087z" fill="#00599C"/>
    <path d="m185.25,341.49151l126.5,-73.034c3.644,-2.104 6.956,-5.737 9.357,-9.897l-149.107,-86.087l-149.107,86.088c2.401,4.159 5.714,7.793 9.357,9.896l126.5,73.034c7.287,4.208 19.213,4.208 26.5,0z" fill="#004482"/>
    <path d="m321.108,86.38551c-2.402,-4.16 -5.715,-7.793 -9.358,-9.897l-126.5,-73.034c-7.287,-4.208 -19.213,-4.208 -26.5,0l-126.5,73.034c-7.288,4.207 -13.25,14.535 -13.25,22.95l0,146.069c0,4.208 1.491,8.894 3.893,13.053l149.107,-86.087l149.108,-86.088z" fill="#659AD2"/>
    <path d="m172,274.47351c-56.243,0 -102,-45.757 -102,-102s45.757,-102 102,-102c36.292,0 70.139,19.53 88.331,50.968l-44.143,25.544c-9.105,-15.736 -26.038,-25.512 -44.188,-25.512c-28.122,0 -51,22.878 -51,51c0,28.121 22.878,51 51,51c18.152,0 35.085,-9.776 44.191,-25.515l44.143,25.543c-18.192,31.441 -52.04,50.972 -88.334,50.972z" fill="#FFFFFF"/>
    <polygon points="274,166.80650329589844 262.666015625,166.80650329589844 262.666015625,155.4735107421875 251.33399963378906,155.4735107421875 251.33399963378906,166.80650329589844 240,166.80650329589844 240,178.13951110839844 251.33399963378906,178.13951110839844 251.33399963378906,189.4735107421875 262.666015625,189.4735107421875 262.666015625,178.13951110839844 274,178.13951110839844 " fill="#FFFFFF"/>
    <polygon points="316.5,166.80650329589844 305.1659851074219,166.80650329589844 305.1659851074219,155.4735107421875 293.8340148925781,155.4735107421875 293.8340148925781,166.80650329589844 282.5,166.80650329589844 282.5,178.13951110839844 293.8340148925781,178.13951110839844 293.8340148925781,189.4735107421875 305.1659851074219,189.4735107421875 305.1659851074219,178.13951110839844 316.5,178.13951110839844 " fill="#FFFFFF"/>
</svg>