<svg width="47" height="47" xmlns="http://www.w3.org/2000/svg" version="1.1">
 <defs id="defs12">
  <linearGradient y2="0.97437" y1="0.2186" x2="0.58036" x1="0.09821" id="a">
   <stop style="--darkreader-inline-stopcolor: #2d187a;" id="stop1" stop-color="#927BE5"/>
   <stop style="--darkreader-inline-stopcolor: #4122aa;" id="stop2" stop-color="#512BD4" offset="1"/>
  </linearGradient>
 </defs>
 <g>
  <title>Layer 1</title>
  <path id="path12" fill="url(#a)" d="m2.46152,14.77117l0,17.393c0,2.1517 1.1478,4.1418 3.0125,5.2168l15.0624,8.6976a6.0223,6.0223 0 0 0 6.025,0l15.0623,-8.6976a6.0237,6.0237 0 0 0 3.0124,-5.2169l0,-17.3928c0,-2.1525 -1.1477,-4.1423 -3.0124,-5.2177l-15.0624,-8.6954a6.021,6.021 0 0 0 -6.0249,0l-15.0624,8.6954a6.0245,6.0245 0 0 0 -3.0125,5.2177l0,-0.0001z"/>
  <path style="--darkreader-inline-fill: #181a1b;" stroke-width="0" id="path13" fill="#fff" d="m13.00565,20.45754l0,6.02555a1.50397,1.50397 0 0 0 1.50661,1.50661a1.50573,1.50573 0 0 0 1.50661,-1.50661a1.50573,1.50573 0 1 1 3.01233,0a4.51806,4.51806 0 1 1 -9.03788,0l0,-6.02467a4.51806,4.51806 0 1 1 9.03788,0a1.50485,1.50485 0 1 1 -3.01233,0a1.50485,1.50485 0 1 0 -3.01233,0l-0.00088,-0.00088zm24.10042,6.02555a1.50485,1.50485 0 0 1 -1.50661,1.50661l-1.50661,0l0,1.50573c0,0.39995 -0.15822,0.78319 -0.44126,1.06535a1.50309,1.50309 0 0 1 -2.12982,0a1.511,1.511 0 0 1 -0.44126,-1.06535l0,-1.50573l-3.01233,0l0,1.50573a1.50309,1.50309 0 0 1 -1.50661,1.50661a1.50309,1.50309 0 0 1 -1.50573,-1.50661l0,-1.50573l-1.50749,0a1.50573,1.50573 0 1 1 0,-3.01233l1.50661,0l0,-3.01233l-1.50661,0a1.50485,1.50485 0 1 1 0,-3.01233l1.50661,0l0,-1.50661a1.50573,1.50573 0 1 1 3.01233,0l0,1.50573l3.01233,0l0,-1.50573a1.50485,1.50485 0 1 1 3.01233,0l0,1.50573l1.50661,0c0.39907,0 0.78231,0.15822 1.06447,0.44126a1.50309,1.50309 0 0 1 0,2.12982a1.50485,1.50485 0 0 1 -1.06447,0.44214l-1.50661,0l0,3.01233l1.50661,0a1.51012,1.51012 0 0 1 1.50661,1.50573l0.00088,0zm-6.02555,-4.51806l-3.01233,0l0,3.01233l3.01233,0l0,-3.01233z"/>
 </g>
</svg>