<svg width="80" height="80" viewBox="0 0 59 59" xmlns="http://www.w3.org/2000/svg" class="css-7vzs6a" aria-label="Homepage" fill="none">
 <g>
  <title>Layer 1</title>
  <path id="svg_1" d="m29.5,28.278a7.28,7.28 0 0 1 7.28,-7.279l1.053,0a8.167,8.167 0 1 1 0,16.333l-1.053,0a7.28,7.28 0 0 1 -7.279,-7.279l-0.001,-1.775z" fill="#00B6FF"/>
  <path id="svg_2" d="m13,45.5a8.167,8.167 0 0 1 8.167,-8.167l8.333,0l0,8.083c0,4.557 -3.735,8.25 -8.292,8.25c-4.51,0 -8.208,-3.656 -8.208,-8.166" fill="#24CB71"/>
  <path id="svg_3" d="m29.5,4.666l0,16.333l8.333,0a8.167,8.167 0 1 0 0,-16.333l-8.333,0z" fill="#FF7237"/>
  <path id="svg_4" d="m13,12.832a8.167,8.167 0 0 0 8.167,8.167l8.333,0l0,-16.333l-8.333,0a8.167,8.167 0 0 0 -8.167,8.166" fill="#FF3737"/>
  <path id="svg_5" d="m13,29.166a8.167,8.167 0 0 0 8.167,8.167l8.333,0l0,-16.333l-8.333,0a8.167,8.167 0 0 0 -8.167,8.166" fill="#874FFF"/>
 </g>
</svg>