<svg width="80" height="80" viewBox="0 0 100 100" xmlns="http://www.w3.org/2000/svg" fill="none">
 <g>
  <title>Layer 1</title>
  <path id="svg_1" fill="#FF9100" d="m36.66611,92.933c3.7882,1.5238 7.897,2.4285 12.2121,2.5802c5.8388,0.2038 11.3943,-1.0043 16.3582,-3.2985c-5.9532,-2.339 -11.3446,-5.7593 -15.9481,-10.0123c-2.9803,4.7774 -7.3924,8.5482 -12.6222,10.7306z"/>
  <path id="svg_2" fill="#FFC400" d="m49.29051,82.2049c-10.5044,-9.714 -16.8777,-23.7754 -16.3383,-39.199c0.0174,-0.4996 0.0447,-1.0017 0.0746,-1.5013c-1.8817,-0.4872 -3.8454,-0.783 -5.8662,-0.8551c-2.8933,-0.1019 -5.69469,0.2585 -8.33944,1.0017c-2.80383,4.9117 -4.49657,10.5467 -4.70786,16.5844c-0.54436,15.5802 8.88379,29.1917 22.5525,34.6975c5.2298,-2.1799 9.6419,-5.9482 12.6247,-10.7282z"/>
  <path id="svg_3" fill="#FF9100" d="m49.29071,82.2047c2.4435,-3.9074 3.9224,-8.491 4.0964,-13.4275c0.4524,-12.9852 -8.2772,-24.1558 -20.3601,-27.2728c-0.0298,0.4996 -0.0572,1.0017 -0.0746,1.5013c-0.5369,15.4211 5.8339,29.4826 16.3383,39.199z"/>
  <path id="svg_4" fill="#DD2C00" d="m52.03441,5c-6.8803,5.51321 -12.3164,12.7813 -15.6025,21.1555c-1.8816,4.7974 -3.0648,9.9477 -3.4103,15.349c12.0828,3.1171 20.8125,14.2877 20.3576,27.2753c-0.1715,4.9365 -1.6579,9.5151 -4.0964,13.4276c4.601,4.2579 9.9949,7.6732 15.9481,10.0122c11.9511,-5.5231 20.4297,-17.4096 20.9194,-31.4685c0.3181,-9.11 -3.1817,-17.2282 -8.1257,-24.0812c-5.2224,-7.2457 -25.9902,-31.6699 -25.9902,-31.6699z"/>
 </g>
</svg>