<svg viewBox="0 0 200.87 54" xmlns="http://www.w3.org/2000/svg"><g fill="#fff"><path d="m18 18h-18v18l18 18v-18h18l-18-18h18v-18h-36z"/><path d="m63.37 41.89h6.01v-12.95h14.32v-5.04h-14.32v-8.13h15.39v-5.16h-21.4z"/><path d="m98.17 19.53c-1.46 0-2.62.33-3.49.99s-1.5 1.64-1.91 2.94h-.06v-3.74h-5.54v22.17h5.75v-12.28c0-1.15.19-2.1.58-2.87.39-.76.91-1.33 1.59-1.71s1.43-.57 2.27-.57c.53 0 1.04.01 1.53.04s.84.06 1.05.08v-4.98c-.22-.01-.48-.03-.78-.05-.29-.02-.62-.03-.99-.03z"/><path d="m117.48 22.79h-.06c-.45-.78-1.01-1.43-1.68-1.95s-1.42-.91-2.26-1.18c-.83-.27-1.73-.4-2.7-.4-1.89 0-3.56.49-5 1.46s-2.57 2.32-3.37 4.05-1.21 3.73-1.21 6.01.4 4.33 1.2 6.07 1.92 3.09 3.36 4.05 3.13 1.45 5.06 1.45c.97 0 1.87-.14 2.7-.43s1.58-.71 2.25-1.26 1.21-1.25 1.65-2.09h.08v3.32h5.61v-22.17h-5.63zm-.45 11.61c-.46 1.02-1.09 1.81-1.91 2.37s-1.78.84-2.89.84c-1.04 0-1.95-.27-2.73-.8s-1.39-1.31-1.83-2.32c-.43-1.01-.65-2.25-.65-3.71s.22-2.71.65-3.72 1.04-1.78 1.83-2.31 1.69-.8 2.73-.8c1.11 0 2.07.28 2.89.84s1.46 1.35 1.91 2.37c.46 1.02.68 2.23.68 3.61s-.23 2.59-.68 3.61z"/><path d="m156.76 20.19c-1.12-.61-2.38-.91-3.78-.91-1.23 0-2.36.22-3.38.65s-1.89 1.05-2.6 1.86c-.46.52-.82 1.1-1.1 1.73-.38-1.13-1.04-2.06-1.99-2.79-1.25-.97-2.72-1.45-4.41-1.45-1.04 0-2.02.19-2.96.58-.94.38-1.76.98-2.47 1.77-.51.57-.93 1.25-1.27 2.03v-3.94h-5.54v22.17h5.75v-13.17c0-1.01.19-1.86.57-2.55s.89-1.22 1.52-1.57c.64-.36 1.33-.54 2.09-.54 1.15 0 2.08.35 2.79 1.06s1.07 1.66 1.07 2.84v13.92h5.56v-13.48c0-.85.17-1.61.5-2.27s.81-1.17 1.42-1.53 1.34-.55 2.19-.55c1.08 0 2 .33 2.77 1 .77.66 1.15 1.7 1.15 3.12v13.71h5.73v-14.66c0-1.72-.33-3.17-.98-4.36-.65-1.18-1.54-2.08-2.66-2.69z"/><path d="m182.08 22.43c-.94-1.02-2.08-1.81-3.39-2.37-1.32-.56-2.79-.84-4.41-.84-2.1 0-3.96.5-5.57 1.49-1.62.99-2.88 2.37-3.8 4.12s-1.38 3.75-1.38 6 .45 4.23 1.34 5.97c.9 1.74 2.17 3.11 3.81 4.1s3.58 1.49 5.81 1.49c1.76 0 3.37-.32 4.83-.95s2.66-1.5 3.62-2.61 1.58-2.4 1.86-3.85h-5.31c-.2.59-.51 1.11-.95 1.56s-.98.81-1.64 1.06-1.41.38-2.25.38c-1.18 0-2.17-.25-2.99-.76-.82-.5-1.45-1.21-1.88-2.12-.39-.82-.6-1.77-.64-2.83h15.88v-1.55c0-1.69-.26-3.24-.77-4.65s-1.24-2.62-2.18-3.64zm-12.89 6.05c.09-.78.28-1.49.59-2.11.43-.86 1.04-1.53 1.83-2s1.72-.7 2.78-.7 2.03.23 2.81.7 1.39 1.13 1.82 2c.31.62.5 1.33.59 2.11h-10.41z"/><path d="m200.09 19.56c-.29-.02-.62-.03-.99-.03-1.46 0-2.62.33-3.49.99s-1.5 1.64-1.91 2.94h-.06v-3.74h-5.54v22.17h5.75v-12.28c0-1.15.19-2.1.58-2.87.38-.76.91-1.33 1.58-1.71s1.43-.57 2.27-.57c.53 0 1.04.01 1.53.04s.84.06 1.05.08v-4.98c-.22-.01-.48-.03-.78-.05z"/></g></svg>