<svg width="80" height="80" viewBox="0 0 512 512" xmlns="http://www.w3.org/2000/svg">
 <title>HTML5 Logo</title>
 <g>
  <title>Layer 1</title>
  <path id="svg_2" d="m107.6,441.7l-33,-370.4l362.8,0l-33,370.2l-148.7,41.2" fill="#e44d26"/>
  <path id="svg_3" d="m256,451.2l0,-349.5l148.3,0l-28.3,316" fill="#f16529"/>
  <path id="svg_4" d="m142,147l114,0l0,45.4l-64.2,0l4.2,46.5l60,0l0,45.3l-101.6,0m2,22.8l45.6,0l3.2,36.3l50.8,13.6l0,47.4l-93.2,-26" fill="#ebebeb"/>
  <path id="svg_5" d="m369.6,147l-113.8,0l0,45.4l109.6,0m-4.1,46.5l-105.5,0l0,45.4l56,0l-5.3,59l-50.7,13.6l0,47.2l93,-25.8" fill="#fff"/>
 </g>
</svg>