<svg width="80" height="80" viewBox="0 0 320 320" xmlns="http://www.w3.org/2000/svg" version="1.0">
  <path fill="#4e7896" id="_227268128" d="m118.37716,242.88106c0,0 -11.9391,7.2672 8.30525,9.34351c24.3967,3.11437 37.3741,2.59576 64.3663,-2.59534c0,0 7.2672,4.67165 17.1297,8.30546c-60.7327,25.9542 -137.557,-1.5577 -89.8013,-15.0536l0.00005,-0.00003zm-7.78643,-33.7402c0,0 -12.9769,9.86233 7.2672,11.9386c26.4735,2.59576 47.2368,3.11437 83.0534,-4.15263c0,0 4.67186,5.19089 12.4579,7.78643c-73.1906,21.8016 -155.206,2.07631 -102.778,-15.5725l-0.0005,0.0001zm143.267,59.1754c0,0 8.82449,7.26741 -9.86254,12.9769c-34.7787,10.3818 -145.863,13.4961 -177.008,0c-10.9006,-4.67144 9.86275,-11.4198 16.6105,-12.4579c6.74817,-1.55708 10.3816,-1.55708 10.3816,-1.55708c-11.9384,-8.30546 -79.4195,17.1295 -34.2595,24.3967c124.061,20.2443 226.321,-8.82428 194.137,-23.3587l0.00094,0.00008zm-129.771,-94.4732c0,0 -56.5799,13.4961 -20.2439,18.1678c15.5725,2.0761 46.1983,1.5575 74.7481,-0.51903c23.3585,-2.07631 46.7176,-6.22894 46.7176,-6.22894c0,0 -8.30546,3.63339 -14.0156,7.26741c-57.6179,15.053 -168.183,8.30504 -136.519,-7.26741c26.9923,-12.9773 49.3125,-11.4198 49.3125,-11.4198l0.0003,-0.00003zm101.222,56.5799c58.1372,-30.1069 31.1451,-59.1754 12.4579,-55.5416c-4.67186,1.03805 -6.74817,2.07631 -6.74817,2.07631c0,0 1.55729,-3.11457 5.19068,-4.15263c36.8552,-12.9773 65.9238,38.9309 -11.9384,59.1752c0,0 0.51861,-0.51903 1.03805,-1.55729l-0.00006,0.00001zm-95.5117,82.0153c56.0613,3.63381 141.71,-2.07631 143.786,-28.5494c0,0 -4.15242,10.3818 -46.1981,18.1676c-47.7558,8.8247 -106.931,7.78643 -141.71,2.07631c0,0 7.26699,6.22915 44.122,8.30546l0.0001,0.00003z"/>
  <path fill="#f58219" id="_230367536" d="m192.64733,4.27272c0,0 32.1832,32.7022 -30.6261,82.0153c-50.3512,39.9692 -11.4198,62.8088 0,88.7629c-29.5878,-26.4728 -50.8702,-49.8319 -36.336,-71.6335c21.2828,-32.1832 79.939,-47.7554 66.9621,-99.1446l0,-0.0001zm-16.6105,148.977c15.053,17.1299 -4.15283,32.7026 -4.15283,32.7026c0,0 38.4121,-19.7253 20.7633,-44.1224c-16.0919,-23.3585 -28.5498,-34.7783 38.9311,-73.7098c0,0 -106.412,26.4735 -55.5416,85.1297l0.00003,-0.0001z"/>
</svg>